# xmcd
#
# Track frame offsets: 
#        182
#        20785
#        41187
#        59000
#        76162
#        95385
#        116305
#        134637
#        155890
#        178735
#        197420
#        219587
#
# Disc length: 3165 seconds
#
# Revision: 2
# Processed by: cddbd v1.5.1PL0 Copyright (c) Steve Scherf et al.
# Submitted via: ExactAudioCopy v0.95a5
#
DISCID=ae0c5b0c
DTITLE=Nu Flavor - It's On
DYEAR=1999
DGENRE=Pop
TTITLE0=Sprung
TTITLE1=Love Fantasy
TTITLE2=Most Beautiful Girl
TTITLE3=It's On!
TTITLE4=3 Little Words
TTITLE5=Promise
TTITLE6=Call Me
TTITLE7=From This Day
TTITLE8=Tell Me Why
TTITLE9=Whenever
TTITLE10=Groove Tonight (The Future Dance)
TTITLE11=Sprung (album remix)
EXTD=
EXTT0=
EXTT1=
EXTT2=
EXTT3=
EXTT4=
EXTT5=
EXTT6=
EXTT7=
EXTT8=
EXTT9=
EXTT10=
EXTT11=
PLAYORDER=
